<svg width="8" height="8" viewBox="0 0 8 8" fill="none" xmlns="http://www.w3.org/2000/svg">
<path fill-rule="evenodd" clip-rule="evenodd" d="M4 8C6.20914 8 8 6.20914 8 4C8 1.79086 6.20914 0 4 0C1.79086 0 0 1.79086 0 4C0 6.20914 1.79086 8 4 8ZM0.939938 4.14C1.03527 4.228 1.14527 4.272 1.26994 4.272H3.40394C3.46994 4.272 3.50294 4.305 3.50294 4.371V6.505C3.50294 6.64433 3.5506 6.76167 3.64594 6.857C3.74127 6.95233 3.8586 7 3.99794 7C4.13727 7 4.2546 6.95233 4.34994 6.857C4.44527 6.76167 4.49294 6.64433 4.49294 6.505V4.371C4.49294 4.305 4.52594 4.272 4.59194 4.272H6.72594C6.8506 4.272 6.95694 4.228 7.04494 4.14C7.14027 4.04467 7.18794 3.93467 7.18794 3.81C7.18794 3.68533 7.14027 3.579 7.04494 3.491C6.95694 3.39567 6.8506 3.348 6.72594 3.348H4.59194C4.52594 3.348 4.49294 3.315 4.49294 3.249V1.115C4.49294 0.975666 4.44527 0.858333 4.34994 0.763C4.2546 0.667666 4.13727 0.62 3.99794 0.62C3.8586 0.62 3.74127 0.667666 3.64594 0.763C3.5506 0.858333 3.50294 0.975666 3.50294 1.115V3.249C3.50294 3.315 3.46994 3.348 3.40394 3.348H1.26994C1.14527 3.348 1.03527 3.39567 0.939938 3.491C0.851938 3.579 0.807938 3.68533 0.807938 3.81C0.807938 3.93467 0.851938 4.04467 0.939938 4.14Z" fill="white"/>
</svg>
