<svg width="26" height="26" viewBox="0 0 26 26" fill="none" xmlns="http://www.w3.org/2000/svg">
<path d="M9.81094 0.293123C7.29219 0.910623 4.57844 2.64937 2.85594 4.76187C1.78344 6.06187 0.613438 8.45062 0.255938 10.0431C-0.0853125 11.5869 -0.0853125 14.3819 0.255938 15.9256C0.710938 17.9894 2.22219 20.7356 3.73344 22.2469C5.24469 23.7581 7.99094 25.2694 10.0547 25.7244C10.7372 25.8706 11.9884 25.9844 12.9959 25.9844C15.2384 25.9844 16.7497 25.6431 18.6347 24.7331C21.5434 23.3356 23.3472 21.5319 24.7447 18.6231C25.6547 16.7381 25.9959 15.2269 25.9959 12.9844C25.9959 11.9769 25.8822 10.7256 25.7359 10.0431C25.2809 7.97937 23.7697 5.23312 22.2584 3.72187C20.7472 2.21062 18.0009 0.699373 15.9372 0.244373C14.3609 -0.096877 11.3547 -0.080627 9.81094 0.293123ZM12.1997 5.37937C12.3459 5.49312 12.5734 5.78562 12.7197 6.02937C13.0772 6.61437 13.1909 6.59812 13.5484 5.91562C14.0197 5.03812 14.9947 4.94062 15.2059 5.75312C15.3034 6.12687 14.7184 7.45937 14.4259 7.58937C14.3447 7.62187 14.2959 7.71937 14.2959 7.80062C14.2959 7.88187 13.5322 9.23062 12.5897 10.8069C11.6472 12.3669 10.8834 13.7644 10.8834 13.8944C10.8834 14.0731 11.2409 14.1219 12.8009 14.1219C13.8409 14.1219 14.7834 14.1869 14.8809 14.2519C15.1734 14.4631 15.5959 15.1619 15.5959 15.4544C15.5959 15.7306 15.2872 15.7469 10.6722 15.7469C5.17969 15.7469 5.13094 15.7306 5.22844 14.7719L5.27719 14.2031L7.04844 14.1219L8.80344 14.0406L9.16094 13.3906C9.33969 13.0331 9.55094 12.7244 9.63219 12.6919C9.69719 12.6594 9.74594 12.5619 9.74594 12.4806C9.74594 12.3994 9.94094 12.0256 10.1847 11.6356C11.2897 9.88062 12.1834 8.19062 12.0372 8.14187C11.9397 8.10937 11.8584 7.99562 11.8584 7.88187C11.8584 7.78437 11.6634 7.41062 11.4197 7.05312C10.7534 6.07812 10.8997 5.20062 11.7122 5.18437C11.8422 5.18437 12.0697 5.28187 12.1997 5.37937ZM15.3847 10.6281C15.9209 11.5219 16.6034 12.6756 16.8959 13.1794L17.4484 14.1219H19.0409C20.5522 14.1219 20.6497 14.1381 20.7797 14.4794C21.0884 15.3081 20.5684 15.7469 19.3009 15.7469H18.3422L18.7647 16.3481C18.9922 16.6894 19.1709 17.0306 19.1709 17.0956C19.1709 17.1769 19.3172 17.4531 19.5122 17.7131C19.8372 18.1681 19.8372 18.2169 19.5934 18.5906C19.4147 18.8669 19.1709 18.9969 18.8784 18.9969C18.4397 18.9969 18.1959 18.6881 16.7497 16.1694C16.5384 15.8119 15.7909 14.5281 15.0922 13.3419C13.6947 10.9856 13.5322 10.3356 14.0847 9.39312C14.2309 9.14937 14.3772 8.95437 14.3934 8.97062C14.4097 8.98687 14.8484 9.73437 15.3847 10.6281ZM8.51094 16.2506C8.73844 16.3644 8.94969 16.5269 8.98219 16.6406C9.03094 16.7381 8.75469 17.3231 8.39719 17.9081C7.84469 18.7856 7.63344 18.9969 7.30844 18.9969C6.41469 18.9969 6.28469 18.3956 6.91844 17.2419C7.63344 15.9744 7.73094 15.9094 8.51094 16.2506Z" fill="#ABABAB"/>
</svg>
