<svg width="30" height="30" viewBox="0 0 30 30" fill="none" xmlns="http://www.w3.org/2000/svg">
    <path
        d="M13.834 0.124388C13.0468 0.370569 12.2949 0.901801 11.731 1.60147C11.261 2.19749 1.14549 21.3219 0.428829 22.9803C-0.640292 25.4551 0.358338 28.4093 2.66106 29.6013L3.33073 29.9511L14.7151 29.99C24.8776 30.0159 26.17 30.003 26.7574 29.8086C28.085 29.394 29.0366 28.4481 29.671 26.9581C29.953 26.2973 30 26.0252 30 25.0275C29.9883 24.0946 29.9413 23.7318 29.7298 23.2136C29.5771 22.8637 27.0746 18.0049 24.1492 12.4205C20.5306 5.47558 18.6626 2.02905 18.2749 1.5626C17.4643 0.577879 16.5009 0.085517 15.3025 0.00777568C14.7503 -0.0181381 14.1629 0.0207326 13.834 0.124388ZM15.9487 9.12943C16.1132 9.259 16.3599 9.58292 16.4774 9.8291C16.7124 10.2826 16.7124 10.3603 16.5009 14.675C16.3951 17.0979 16.2542 19.2876 16.1837 19.5468C16.0427 20.1687 15.5845 20.5574 15.0088 20.5574C14.4449 20.5574 13.881 20.0521 13.7987 19.482C13.7635 19.2488 13.646 17.3441 13.552 15.2451C13.4463 13.1461 13.3405 11.2932 13.3053 11.1248C13.2348 10.7102 13.4463 9.90684 13.7517 9.47926C14.2687 8.75368 15.2908 8.58524 15.9487 9.12943ZM15.9487 22.2029C16.9238 22.9933 16.8533 24.7166 15.8195 25.2996C14.6916 25.9345 13.3758 25.0794 13.3758 23.7189C13.3758 22.2807 14.9266 21.3737 15.9487 22.2029Z"
        fill="#5CBDFF" />
</svg>