<svg width="25" height="28" viewBox="0 0 25 28" fill="none" xmlns="http://www.w3.org/2000/svg">
<path d="M0.838477 0.148046C0.543164 0.364257 0.295313 0.664843 0.137109 1.00234L0 1.29238V13.5004V25.7084L0.142383 26.009C0.300586 26.3518 0.675 26.7789 0.943945 26.9213L1.12852 27.0215L4.86211 23.3248C6.91348 21.2893 9.97207 18.2465 11.6543 16.559L14.7129 13.4951L7.95234 6.75039C4.23984 3.03789 1.16016 0.000390148 1.11797 0.000390148C1.07578 0.000390148 0.949219 0.0689448 0.838477 0.148046Z" fill="#ABABAB"/>
<path d="M9.96677 6.53906L15.8203 12.3926L17.4129 10.8C18.6521 9.56074 18.9949 9.1916 18.9422 9.14414C18.8367 9.04395 4.24509 0.685547 4.17653 0.685547C4.13962 0.685547 6.74997 3.31699 9.96677 6.53906Z" fill="#ABABAB"/>
<path d="M18.6732 11.7918L16.933 13.5004L18.6679 15.2037C19.6172 16.1371 20.4135 16.907 20.4345 16.9176C20.5136 16.9492 23.5828 15.1615 23.7937 14.9611C23.915 14.8451 24.0785 14.6078 24.1629 14.4285C24.2947 14.1385 24.3105 14.0541 24.3105 13.5267C24.3105 12.9994 24.2947 12.915 24.1629 12.625C23.9256 12.1135 23.6672 11.9131 22.0008 10.948C21.1623 10.4681 20.4609 10.0726 20.4451 10.0779C20.424 10.0779 19.6277 10.8478 18.6732 11.7918Z" fill="#ABABAB"/>
<path d="M9.96677 20.4609C6.74997 23.683 4.13962 26.3145 4.17653 26.3145C4.24509 26.3145 18.8367 17.9561 18.9422 17.8559C18.9949 17.8084 18.6521 17.4393 17.4129 16.2L15.8203 14.6074L9.96677 20.4609Z" fill="#ABABAB"/>
</svg>
