<svg width="30" height="30" viewBox="0 0 30 30" fill="none" xmlns="http://www.w3.org/2000/svg">
<circle cx="15" cy="15" r="14.5" fill="#E9EEF2" stroke="#3E4A51"/>
<path fill-rule="evenodd" clip-rule="evenodd" d="M22.6971 20.9184C22.9129 20.807 23.0408 20.5517 22.988 20.3374C22.9625 20.2339 22.0127 19.1083 20.6633 17.5824L18.3817 15.0024L20.6636 12.419C22.002 10.9037 22.9632 9.76372 22.9883 9.6616C23.0408 9.4484 22.9124 9.19277 22.6971 9.08164C22.5849 9.02375 22.0765 9.0016 20.8422 9.00096L19.1418 9L18.9528 9.16232C18.6185 9.44923 14.0346 14.6775 13.9735 14.8416C13.9365 14.9408 13.9365 15.0592 13.9735 15.1584C14.0346 15.3225 18.6185 20.5508 18.9528 20.8377L19.1418 21L20.8422 20.999C22.0765 20.9984 22.5849 20.9763 22.6971 20.9184ZM15.7514 20.9184C15.9663 20.8074 16.095 20.5516 16.0427 20.339C16.0178 20.2379 15.0618 19.1029 13.7491 17.6159C12.5111 16.2136 11.4982 15.0364 11.4982 15C11.4982 14.9636 12.5111 13.7864 13.7491 12.3841C15.0618 10.8971 16.0178 9.76213 16.0427 9.66096C16.095 9.4484 15.9663 9.19264 15.7514 9.08164C15.6392 9.02375 15.1308 9.0016 13.8965 9.00096L12.1961 9L12.0071 9.16232C11.6727 9.44923 7.08887 14.6775 7.02774 14.8416C6.99076 14.9408 6.99076 15.0592 7.02774 15.1584C7.08887 15.3225 11.6727 20.5508 12.0071 20.8377L12.1961 21L13.8965 20.999C15.1308 20.9984 15.6392 20.9763 15.7514 20.9184Z" fill="#3E4A51"/>
</svg>
