<svg width="30" height="26" viewBox="0 0 30 26" fill="none" xmlns="http://www.w3.org/2000/svg">
<path d="M27.3864 0.227369C27.1339 0.353646 26.1394 0.748263 25.1766 1.11131C22.2564 2.21624 19.8413 3.14754 19.3362 3.36852C18.8627 3.57372 18.0577 3.88942 16.937 4.3156C16.6055 4.44188 15.8794 4.71022 15.3111 4.9312C14.7429 5.15219 13.6853 5.56259 12.9434 5.83093C12.2016 6.11506 11.3965 6.43075 11.1282 6.54124C10.8756 6.66752 10.2285 6.92007 9.70758 7.10949C9.18669 7.31469 8.69736 7.53568 8.60265 7.59882C8.52373 7.66196 8.33431 7.72509 8.17647 7.72509C8.01862 7.72509 7.76606 7.78823 7.60822 7.86716C7.46615 7.94608 7.02418 8.1355 6.62957 8.27756C6.23495 8.4354 5.77719 8.60904 5.60356 8.68796C5.20895 8.84581 3.75675 9.41406 2.92017 9.72975C2.5729 9.87181 2.14672 10.0297 1.97309 10.1086C1.79945 10.1717 1.40484 10.3296 1.10493 10.4558C0.347263 10.7558 0 11.1346 0 11.6555C0 12.2237 0.347263 12.5079 1.42062 12.8393C1.89416 12.9972 2.54133 13.2024 2.84124 13.3287C3.14115 13.4391 4.02509 13.7233 4.81433 13.96C5.60356 14.1968 6.51907 14.4967 6.88212 14.623L7.52929 14.8598L8.74471 14.0863C9.40767 13.6759 10.1496 13.2024 10.3863 13.0603C10.6231 12.9025 10.923 12.7288 11.0493 12.6657C11.1756 12.6026 11.728 12.2553 12.2805 11.8765C12.8329 11.4976 13.3065 11.1977 13.3381 11.1977C13.4328 11.1977 15.8478 9.72975 15.9425 9.60347C15.9899 9.55612 16.1319 9.46141 16.2582 9.39827C16.5581 9.25621 16.9054 9.05101 18.0577 8.30913C18.5628 7.97765 19.1942 7.58303 19.4783 7.44097C19.7466 7.28312 20.3938 6.87272 20.9147 6.52546C21.4514 6.17819 21.9723 5.84672 22.0986 5.78358C22.2248 5.72044 22.5247 5.54681 22.7615 5.38896C23.6297 4.82071 24.9398 4.09462 25.0976 4.09462C25.5554 4.09462 24.9714 4.69443 21.404 7.88294C21.0726 8.18285 20.599 8.60904 20.378 8.84581C20.157 9.06679 19.2257 9.91917 18.3102 10.74C17.3947 11.545 16.3529 12.5079 15.9741 12.8551C15.1059 13.6601 14.5377 14.1652 13.0224 15.5385C12.3436 16.1383 11.586 16.8171 11.3492 17.0381C10.923 17.4169 10.8756 17.5905 10.6547 19.4847C10.2285 23.1309 10.3548 23.8255 11.4281 23.8255C11.8543 23.8255 12.4541 23.3361 14.9797 20.8895C15.8794 20.0214 16.4161 19.7688 16.4161 20.2108C16.4161 20.2897 16.5108 20.3528 16.6371 20.3528C16.7633 20.3528 16.8896 20.416 16.9212 20.4791C16.9527 20.558 18.1366 21.4893 19.573 22.5627C21.0094 23.6203 22.209 24.5358 22.2564 24.5989C22.509 24.8988 23.4245 25.2461 23.9611 25.2461C24.9556 25.2461 25.2081 24.8988 25.6343 22.9573C25.7922 22.2628 26.0132 21.2841 26.1394 20.7948C26.2657 20.2897 26.3604 19.7372 26.3604 19.5478C26.3604 19.3584 26.4551 18.8375 26.5814 18.3955C26.7077 17.9536 26.9129 17.0538 27.0549 16.4067C27.6705 13.4234 27.7653 12.9498 27.9389 12.0659C28.0336 11.545 28.223 10.6453 28.3493 10.0454C28.5545 9.05101 28.6966 8.4354 29.2964 5.62573C29.4226 5.01013 29.6436 4.04726 29.7699 3.51058C30.1014 2.08996 30.0698 0.574632 29.7068 0.258938C29.3437 -0.0725403 28.0652 -0.088325 27.3864 0.227369Z" fill="#ABABAB"/>
</svg>
